# xmcd
#
# Track frame offsets:
#	150
#	16163
#	34083
#	52649
#	66165
#	83820
#	99716
#	116871
#	135662
#	151330
#	167444
#
# Disc length: 2477 seconds
#
# Revision: 1
# Processed by: cddbd v1.4PL0 Copyright (c) Steve Scherf et al.
# Submitted via: EasyCDDAExtractor 5.1.0
#
DISCID=8109ab0b
DTITLE=Candace Asher
DYEAR=2001
DGENRE=Country
TTITLE0=Everytime Your Heart Breaks
TTITLE1=A Face in the Crowd
TTITLE2=I'm Looking Forward
TTITLE3=I'm Looking Forward
TTITLE4=At the Hands of a Man
TTITLE5=One Tender Tear
TTITLE6=Thankless Children
TTITLE7=More Than Just a Vase
TTITLE8=If I Met You Now (
TTITLE9=Something in Me 
TTITLE10=Slow Dancing
EXTD=
EXTT0=
EXTT1=
EXTT2=
EXTT3=
EXTT4=
EXTT5=
EXTT6=
EXTT7=
EXTT8=
EXTT9=
EXTT10=
PLAYORDER=
